<svg width="183" height="66" viewBox="0 0 183 66" fill="none" xmlns="http://www.w3.org/2000/svg">
<path d="M29.4184 64.7786C28.8088 64.7783 28.2097 64.6184 27.6813 64.3148L2.62824 49.8765C2.10008 49.5706 1.66173 49.1316 1.35713 48.6032C1.05253 48.0749 0.892466 47.4758 0.892846 46.8662V17.9911C0.893323 17.3823 1.05376 16.7843 1.35832 16.2569C1.66288 15.7294 2.1008 15.2911 2.62824 14.9857L27.6813 0.542494C28.2097 0.2388 28.8088 0.0789795 29.4184 0.0789795C30.0281 0.0789795 30.627 0.2388 31.1554 0.542494L56.2053 14.9857C56.7332 15.2906 57.1715 15.7289 57.4764 16.2564C57.7813 16.7839 57.9419 17.3821 57.9423 17.9911V46.8662C57.9419 47.4752 57.7813 48.0735 57.4764 48.601C57.1715 49.1285 56.7332 49.5666 56.2053 49.8716L31.1554 64.3197C30.6264 64.6214 30.0277 64.7797 29.4184 64.7786V64.7786ZM22.4536 22.4139C22.2924 22.4514 22.134 22.4998 21.9794 22.5587L21.9012 22.5913C21.7608 22.6526 21.6247 22.7233 21.4938 22.8028L21.4204 22.8549C21.2959 22.9338 21.1792 23.0243 21.0717 23.1251C20.759 23.4202 20.5139 23.7793 20.3532 24.1778C20.2222 24.4934 20.1509 24.8306 20.1429 25.1721V25.2518C20.2395 26.4319 20.1347 27.6198 19.8332 28.7649C19.5904 29.8129 19.2434 30.8722 18.8768 31.9917V32.0015C18.7692 32.3269 18.6599 32.6671 18.5507 33.0071C18.2877 33.7273 18.0699 34.4631 17.8989 35.2104C17.8933 35.2357 17.8863 35.2607 17.8778 35.2852C17.8628 35.3226 17.854 35.3622 17.8517 35.4024L17.6888 36.146C17.6171 36.3559 17.5503 36.5805 17.4851 36.7969L17.4264 37.041L17.3678 37.2721C17.214 37.9576 17.1256 38.656 17.1038 39.3582V40.3508C17.1439 41.0502 17.2497 41.7442 17.4199 42.4238C17.8774 44.2117 18.7843 45.8533 20.0548 47.1932C20.4901 47.6495 20.9639 48.0677 21.4709 48.4429H21.5101C21.7169 48.6127 21.9347 48.7687 22.162 48.9099L22.307 48.9945C22.5123 49.1198 22.7599 49.2679 23.0321 49.403L23.151 49.4551C24.2346 49.9921 25.4017 50.3415 26.6025 50.4883H26.6693C26.9054 50.5383 27.1467 50.5585 27.3879 50.5485H28.646C28.8693 50.5355 29.0907 50.516 29.2977 50.4883L29.6464 50.4363C29.8403 50.4102 30.0393 50.3695 30.2332 50.3321L30.6162 50.2394C30.7791 50.2052 30.955 50.1531 31.087 50.1141L31.1554 50.0945C31.2516 50.0669 31.3478 50.0327 31.4423 50.0002H31.452L31.571 49.9595L32.0713 49.7756L32.4934 49.5852C32.6466 49.5152 32.8193 49.4355 32.9676 49.3623C33.0654 49.3135 33.1534 49.263 33.2463 49.2077H33.2561L33.3897 49.1312L33.4042 49.1231C33.5493 49.0417 33.6976 48.9604 33.8377 48.8692L34.2322 48.5926L34.3951 48.4754L34.6688 48.2769C34.7174 48.2414 34.7643 48.2034 34.809 48.163L34.9459 48.0458L35.0322 47.9743C35.1675 47.862 35.3077 47.7448 35.4364 47.6212L39.7841 43.5222L40.7846 42.5816C40.8189 42.5475 40.8481 42.5101 40.8807 42.4726L40.9492 42.3913V42.3457C41.4415 41.7973 41.709 41.0839 41.6981 40.3475C41.6872 39.611 41.3988 38.9057 40.8905 38.3721C40.4083 37.9146 39.7826 37.638 39.1193 37.5894C39.3298 37.2235 39.4707 36.8219 39.5348 36.4047C39.6081 36.0102 39.5872 35.6039 39.4739 35.2188C39.3607 34.8338 39.1583 34.4808 38.883 34.1885C38.6761 33.98 38.4381 33.8049 38.1774 33.6694L38.0845 33.6174C37.7948 33.48 37.486 33.3867 37.1686 33.3407C37.4369 32.8806 37.5711 32.3548 37.5561 31.8226C37.5412 31.2904 37.3776 30.773 37.0839 30.3287C37.0259 30.2411 36.9621 30.1574 36.8931 30.0781C36.5215 29.746 36.0664 29.521 35.5765 29.4272L40.8465 24.4545C41.1669 24.1543 41.4156 23.7861 41.5744 23.3771C41.7331 22.968 41.7978 22.5286 41.7637 22.0913C41.7296 21.6539 41.5977 21.2298 41.3774 20.8502C41.1572 20.4706 40.8543 20.1453 40.4912 19.8983L40.3983 19.8462C40.2662 19.7601 40.1273 19.6849 39.9828 19.6216L39.952 19.607C39.8947 19.5752 39.8314 19.5558 39.7662 19.55C39.6605 19.5079 39.5513 19.4747 39.4401 19.4508C39.3978 19.4508 39.3554 19.4508 39.3114 19.4508C39.2674 19.4508 39.2251 19.4508 39.1827 19.4508C39.0781 19.4337 38.9726 19.4229 38.8666 19.4182H38.3142C38.2094 19.441 38.106 19.4698 38.0045 19.5045C37.9269 19.52 37.8503 19.5395 37.7748 19.563C37.6734 19.606 37.5744 19.6544 37.4782 19.7079C37.4456 19.7258 37.4114 19.742 37.3821 19.7551C37.3431 19.772 37.3049 19.7911 37.2679 19.812C37.1425 19.8949 37.0239 19.9873 36.9128 20.0886C36.8765 20.1131 36.8415 20.1397 36.8084 20.1684L27.7155 28.8984L25.8709 30.6363L25.9311 29.0969L26.0223 25.8669V25.4129C26.042 24.6319 25.752 23.8748 25.215 23.3067C24.6781 22.7385 23.9379 22.4053 23.156 22.3798H23.05C22.8734 22.3836 22.6975 22.401 22.5236 22.4318L22.4536 22.4139ZM35.2701 16.5673C34.9958 16.567 34.7314 16.6692 34.5288 16.8538L32.117 19.1953C31.9642 19.3499 31.8603 19.546 31.8184 19.7591C31.7766 19.9723 31.7988 20.193 31.8819 20.3937C31.965 20.5944 32.1056 20.7662 32.2859 20.8876C32.4663 21.009 32.6783 21.0747 32.8958 21.0764H32.9073C33.1928 21.0774 33.4673 20.9664 33.6716 20.7672L36.0702 18.4191C36.2175 18.263 36.3158 18.0674 36.3531 17.8562C36.3903 17.645 36.3649 17.4275 36.2799 17.2306C36.1948 17.0337 36.0539 16.8659 35.8745 16.7481C35.695 16.6302 35.4849 16.5674 35.2701 16.5673V16.5673ZM22.7615 16.5185C22.5389 16.5183 22.3215 16.5855 22.1379 16.7113C21.9543 16.8371 21.8133 17.0156 21.7335 17.2231C21.6537 17.4307 21.6389 17.6575 21.6909 17.8737C21.743 18.0899 21.8595 18.2851 22.0251 18.4337L24.4432 20.7623C24.6433 20.9608 24.9141 21.0719 25.1961 21.0715H25.2059C25.3512 21.0697 25.4948 21.0392 25.6282 20.9817C25.7616 20.9241 25.8824 20.8407 25.9833 20.7363V20.7688C26.1889 20.5626 26.3043 20.2836 26.3043 19.9926C26.3043 19.7017 26.1889 19.4226 25.9833 19.2165L23.5518 16.8553C23.4492 16.7496 23.3263 16.6655 23.1906 16.6079C23.0549 16.5504 22.909 16.5205 22.7615 16.5201V16.5185ZM28.8969 13.8548C28.6053 13.8552 28.3259 13.9711 28.1197 14.1769C27.9135 14.3828 27.7975 14.662 27.797 14.9532V18.3085C27.797 18.5998 27.9128 18.8791 28.1191 19.0851C28.3254 19.2911 28.6051 19.4069 28.8969 19.4069C29.1886 19.4069 29.4684 19.2911 29.6747 19.0851C29.8809 18.8791 29.9969 18.5998 29.9969 18.3085V14.9532C29.9965 14.662 29.8804 14.3828 29.6743 14.1769C29.4681 13.9711 29.1885 13.8552 28.8969 13.8548V13.8548ZM22.1309 48.2477V48.2021C21.6526 47.8795 21.2004 47.5199 20.7785 47.1265L21.6356 47.3071H21.6943C21.7423 47.3068 21.7892 47.293 21.8298 47.2674C21.8704 47.2419 21.9031 47.2054 21.9241 47.1623L22.6296 45.8459L24.3813 46.4252C24.4383 46.4453 24.5005 46.4458 24.5578 46.4267C24.6151 46.4075 24.6641 46.3698 24.6974 46.3194L25.5401 44.9639L27.6291 45.1803H27.6502C27.6984 45.1804 27.7457 45.1676 27.7873 45.1432C27.8288 45.1189 27.8631 45.084 27.8865 45.042L28.6442 43.7256L30.1109 43.475C30.1452 43.4721 30.1777 43.4585 30.2038 43.436L31.1815 42.8306C31.2166 42.8127 31.2471 42.7869 31.2706 42.7553C31.2941 42.7237 31.3098 42.6871 31.3168 42.6484C31.3235 42.6096 31.3212 42.5698 31.3102 42.532C31.2992 42.4943 31.2798 42.4595 31.2533 42.4303V42.4759C31.2357 42.4452 31.2118 42.4184 31.1833 42.3973C31.1548 42.3762 31.1222 42.3612 31.0876 42.3532C31.053 42.3453 31.0172 42.3446 30.9824 42.3511C30.9475 42.3577 30.9142 42.3714 30.8849 42.3913L29.9561 42.9576L28.4145 43.2277C28.3757 43.2339 28.3388 43.2491 28.3069 43.272C28.2749 43.2948 28.2489 43.3248 28.2305 43.3595L27.5052 44.6222L25.4243 44.4042H25.3951C25.3502 44.4042 25.3062 44.416 25.2673 44.4382C25.2285 44.4605 25.1959 44.4925 25.1733 44.5311L24.3424 45.8475L22.571 45.2552C22.5098 45.2348 22.4433 45.2368 22.3836 45.261C22.3238 45.2852 22.2746 45.3299 22.2449 45.387L21.533 46.7425L20.1037 46.4349C19.6864 45.9475 19.3155 45.4224 18.9957 44.8663C22.1082 44.4725 29.697 43.2635 32.9626 40.5444C32.6898 41.6214 32.1314 42.6051 31.3462 43.392C30.4034 44.3994 29.3067 45.2513 28.0968 45.9158C26.2147 46.9447 24.208 47.7279 22.126 48.246L22.1309 48.2477ZM20.7719 47.1249L19.8529 46.9312C19.69 46.7575 19.5359 46.5755 19.3916 46.3861C19.4368 46.3466 19.4944 46.3242 19.5545 46.3226H19.6034L20.1053 46.43C20.2112 46.5537 20.3222 46.6774 20.4314 46.7962C20.5405 46.915 20.6513 47.0142 20.7572 47.1216L20.7719 47.1249ZM135.74 46.9621C135.168 46.9738 134.596 46.9526 134.027 46.8987C133.31 46.8643 132.634 46.5519 132.144 46.028C131.654 45.5041 131.388 44.81 131.403 44.0933C131.417 43.3765 131.711 42.6936 132.221 42.1898C132.732 41.686 133.42 41.401 134.138 41.3955C134.222 41.3955 134.301 41.3954 134.394 41.4068C134.845 41.4361 135.272 41.4491 135.663 41.4491C136.8 41.5793 137.947 41.3156 138.912 40.7022C140.323 39.3565 140.216 34.4439 140.097 28.2263V27.9009V27.8928C140.058 25.9499 140.012 23.7466 140.006 21.3676C140.003 20.6385 140.29 19.9381 140.805 19.4206C141.319 18.903 142.018 18.6107 142.748 18.6079C143.478 18.6051 144.18 18.892 144.698 19.4056C145.217 19.9192 145.509 20.6173 145.512 21.3465C145.512 23.4977 145.555 25.5105 145.594 27.2858V27.3574C145.594 27.6124 145.599 27.864 145.61 28.1124V28.1369C145.773 36.5756 145.882 41.6688 142.719 44.6791C141.781 45.5557 140.641 46.1869 139.4 46.5163C138.206 46.831 136.974 46.9794 135.74 46.9573V46.9621ZM125.395 46.5228H125.255H113.204C112.473 46.522 111.772 46.2316 111.256 45.7154C110.739 45.1993 110.448 44.4995 110.447 43.7695V21.3725C110.443 20.6428 110.727 19.941 111.239 19.4199C111.494 19.1613 111.799 18.9562 112.135 18.8165C112.471 18.6768 112.831 18.6054 113.194 18.6063H125.253H125.393C126.125 18.6063 126.826 18.8963 127.343 19.4127C127.86 19.929 128.151 20.6293 128.151 21.3595C128.151 22.0897 127.86 22.79 127.343 23.3064C126.826 23.8227 126.125 24.1128 125.393 24.1128H125.253H115.939V29.808H122.714H122.855C123.586 29.808 124.287 30.0981 124.804 30.6144C125.321 31.1308 125.612 31.8311 125.612 32.5613C125.612 33.2915 125.321 33.9918 124.804 34.5081C124.287 35.0245 123.586 35.3145 122.855 35.3145H122.714H115.939V41.0098H125.253V41.0456H125.393C126.125 41.0456 126.826 41.3357 127.343 41.852C127.86 42.3683 128.151 43.0686 128.151 43.7988C128.151 44.529 127.86 45.2293 127.343 45.7457C126.826 46.262 126.125 46.5521 125.393 46.5521L125.395 46.5228ZM102.457 46.4952C102.374 46.4952 102.294 46.4951 102.206 46.4837C101.547 46.4825 100.91 46.2452 100.41 45.815C99.911 45.3848 99.5827 44.7901 99.4849 44.1389L97.448 30.3889L92.4272 39.3809C92.1911 39.8076 91.845 40.1633 91.4246 40.411C91.0042 40.6587 90.5249 40.7893 90.0367 40.7893C89.5486 40.7893 89.0693 40.6587 88.6488 40.411C88.2284 40.1633 87.8821 39.8076 87.6461 39.3809L82.3939 30.2278L80.4206 44.1194C80.3117 44.7591 79.9794 45.3396 79.4827 45.7581C78.9861 46.1766 78.3572 46.406 77.7073 46.4056C77.5776 46.4054 77.4479 46.3961 77.3194 46.378C76.6098 46.2782 75.967 45.9065 75.5272 45.3415C75.0873 44.7765 74.8851 44.0627 74.9632 43.3514L78.0171 21.589C78.0972 21.0212 78.3529 20.4925 78.7485 20.077C79.1441 19.6614 79.6599 19.3796 80.2237 19.271C80.7875 19.1624 81.3712 19.2323 81.8932 19.4711C82.4153 19.7099 82.8496 20.1056 83.1355 20.6028L90.0025 32.4588L96.581 20.6728C96.8585 20.1671 97.2884 19.7614 97.8098 19.5134C98.3312 19.2654 98.9176 19.1877 99.4857 19.2913C100.054 19.3948 100.575 19.6744 100.975 20.0903C101.375 20.5063 101.634 21.0374 101.714 21.6085L104.936 43.3644C104.99 43.7218 104.973 44.0863 104.885 44.437C104.798 44.7877 104.642 45.1178 104.427 45.4083C104.211 45.6987 103.94 45.9438 103.63 46.1295C103.319 46.3151 102.975 46.4377 102.617 46.4902L102.457 46.4952ZM179.026 46.2087C178.609 46.21 178.197 46.1162 177.821 45.9343C177.446 45.7524 177.117 45.4873 176.86 45.1592L167.963 33.8516C167.963 35.2559 167.946 36.6749 167.935 38.0466V38.128C167.92 40.0464 167.907 41.8559 167.907 43.475C167.902 44.2003 167.61 44.8942 167.095 45.4058C166.581 45.9174 165.885 46.2054 165.158 46.2071V46.2071C164.797 46.2052 164.439 46.1321 164.105 45.992C163.772 45.8518 163.47 45.6475 163.216 45.3905C162.962 45.1336 162.761 44.8292 162.625 44.4946C162.488 44.16 162.419 43.802 162.422 43.4408C162.484 29.6258 162.484 22.4855 162.422 21.615C162.378 21.2582 162.405 20.8962 162.502 20.55C162.598 20.2037 162.763 19.8801 162.986 19.5978C163.209 19.3155 163.486 19.0803 163.801 18.9056C164.115 18.7309 164.461 18.6203 164.819 18.5802C164.914 18.5704 165.008 18.5656 165.103 18.5656C165.784 18.5683 166.442 18.8167 166.955 19.2652C167.468 19.7136 167.801 20.332 167.894 21.0064C167.979 21.5906 167.979 25.6049 167.979 30.2506L175.734 20.3523C175.95 20.0494 176.226 19.7934 176.544 19.5998C176.862 19.4062 177.216 19.279 177.585 19.2259C177.954 19.1727 178.329 19.1947 178.689 19.2906C179.049 19.3865 179.386 19.5542 179.679 19.7836C179.973 20.0131 180.216 20.2995 180.396 20.6256C180.575 20.9517 180.686 21.3107 180.723 21.6809C180.759 22.0511 180.72 22.4249 180.608 22.7797C180.496 23.1344 180.313 23.4628 180.07 23.745L173.552 32.0438L181.188 41.7453L181.203 41.7599C181.521 42.1659 181.718 42.6528 181.772 43.1652C181.827 43.6776 181.736 44.1949 181.511 44.6584C181.285 45.1219 180.934 45.513 180.497 45.787C180.06 46.0611 179.555 46.2072 179.039 46.2087H179.026ZM153.875 45.5058C153.144 45.5049 152.443 45.2146 151.926 44.6984C151.409 44.1823 151.119 43.4825 151.118 42.7525V21.3725C151.118 20.6423 151.408 19.942 151.925 19.4257C152.442 18.9093 153.144 18.6193 153.875 18.6193C154.606 18.6193 155.308 18.9093 155.825 19.4257C156.342 19.942 156.632 20.6423 156.632 21.3725V42.7835C156.623 43.5074 156.328 44.1986 155.812 44.7072C155.296 45.2158 154.6 45.501 153.875 45.5009V45.5058ZM28.3576 39.7536C27.0663 39.6103 25.8607 39.0371 24.9353 38.1264L30.8915 35.0347C30.9979 35.5873 31.0433 36.1498 31.0267 36.7123C31.0503 37.1866 30.9659 37.6602 30.7799 38.0973C30.5939 38.5344 30.3112 38.9237 29.9529 39.2361C29.4876 39.5686 28.9298 39.7478 28.3576 39.7487V39.7536ZM18.1141 39.7536C17.944 39.7541 17.7748 39.7288 17.6122 39.6787C17.6141 38.9678 17.6889 38.259 17.8354 37.5633L20.1737 38.7805C19.6159 39.3256 18.8903 39.6667 18.1141 39.7487V39.7536Z" fill="#8854D0"/>
<path d="M102.95 57.356V55.2H97V65H99.24V61.402H102.88V59.246H99.24V57.356H102.95Z" fill="#2C3A47"/>
<path d="M108.949 65.196C111.763 65.196 114.045 62.984 114.045 60.1C114.045 57.216 111.763 55.004 108.949 55.004C106.135 55.004 103.853 57.216 103.853 60.1C103.853 62.984 106.135 65.196 108.949 65.196ZM108.949 63.012C107.353 63.012 106.093 61.85 106.093 60.1C106.093 58.35 107.353 57.188 108.949 57.188C110.545 57.188 111.805 58.35 111.805 60.1C111.805 61.85 110.545 63.012 108.949 63.012Z" fill="#2C3A47"/>
<path d="M118.948 65.196C121.104 65.196 122.728 63.936 122.728 61.836V55.2H120.488V61.64C120.488 62.382 120.138 63.012 118.948 63.012C117.758 63.012 117.408 62.382 117.408 61.64V55.2H115.168V61.836C115.168 63.936 116.792 65.196 118.948 65.196Z" fill="#2C3A47"/>
<path d="M129.804 55.2V60.52L126.024 55.2H124.344V65H126.584V59.68L130.364 65H132.044V55.2H129.804Z" fill="#2C3A47"/>
<path d="M137.643 55.2H133.723V65H137.643C140.345 65 142.403 62.872 142.403 60.1C142.403 57.328 140.345 55.2 137.643 55.2ZM137.643 62.844H135.963V57.356H137.643C139.183 57.356 140.247 58.42 140.247 60.1C140.247 61.78 139.183 62.844 137.643 62.844Z" fill="#2C3A47"/>
<path d="M149.537 65H151.987L148.655 55.2H145.799L142.467 65H144.917L145.407 63.46H149.047L149.537 65ZM146.079 61.36L147.227 57.762L148.375 61.36H146.079Z" fill="#2C3A47"/>
<path d="M158.705 55.2H151.425V57.356H153.945V65H156.185V57.356H158.705V55.2Z" fill="#2C3A47"/>
<path d="M159.686 55.2V65H161.926V55.2H159.686Z" fill="#2C3A47"/>
<path d="M168.285 65.196C171.099 65.196 173.381 62.984 173.381 60.1C173.381 57.216 171.099 55.004 168.285 55.004C165.471 55.004 163.189 57.216 163.189 60.1C163.189 62.984 165.471 65.196 168.285 65.196ZM168.285 63.012C166.689 63.012 165.429 61.85 165.429 60.1C165.429 58.35 166.689 57.188 168.285 57.188C169.881 57.188 171.141 58.35 171.141 60.1C171.141 61.85 169.881 63.012 168.285 63.012Z" fill="#2C3A47"/>
<path d="M180.103 55.2V60.52L176.323 55.2H174.643V65H176.883V59.68L180.663 65H182.343V55.2H180.103Z" fill="#2C3A47"/>
</svg>
